<svg t="1713685248865" class="icon" viewBox="0 0 1024 1024" version="1.1" xmlns="http://www.w3.org/2000/svg" p-id="23301" width="64" height="64"><path d="M450.56 443.82208v-122.2656a61.44 61.44 0 0 0-21.27872-46.4896 78.39744 78.39744 0 0 1-4.17792-3.85024 122.88 122.88 0 1 1 173.79328 0 92.9792 92.9792 0 0 1-4.17792 3.85024A61.44 61.44 0 0 0 573.44 321.536v122.2656c1.9456 0.9216 3.8912 1.90464 5.81632 2.90816l227.79904 120.29952A61.0304 61.0304 0 0 1 839.68 620.9536v150.7328a61.0304 61.0304 0 0 1-32.62464 53.92384l-227.79904 120.29952a144.13824 144.13824 0 0 1-134.51264 0l-227.79904-120.29952A61.0304 61.0304 0 0 1 184.32 771.6864v-150.7328a61.0304 61.0304 0 0 1 32.62464-53.92384l227.79904-120.29952c1.92512-1.024 3.87072-1.98656 5.81632-2.90816z m-53.63712 121.30304l-96.82944 51.69152a20.48 20.48 0 0 0 0 36.12672l182.8864 97.64864a62.21824 62.21824 0 0 0 58.01984 0l182.90688-97.64864a20.48 20.48 0 0 0 0-36.12672l-96.82944-51.69152c5.03808 8.94976 7.80288 18.65728 7.80288 28.79488 0 45.2608-55.00928 81.92-122.88 81.92s-122.88-36.6592-122.88-81.92c0-10.1376 2.7648-19.84512 7.80288-28.79488zM491.52 204.8a40.96 40.96 0 1 0 0-81.92 40.96 40.96 0 0 0 0 81.92z" p-id="23302" fill="#8da5f3"></path></svg>