<svg t="1713667297538" class="icon" viewBox="0 0 514 512" version="1.1" xmlns="http://www.w3.org/2000/svg" p-id="20016" width="128" height="128"><path d="M508.05 209.25a48.133 48.133 0 0 0 -36.65 -33.9c-36.15 -7.45 -48.95 -29.65 -37.35 -64.65 5.65 -17.05 1.4 -35.75 -11.05 -48.65 -20.65 -21.45 -51.95 -39.55 -80.9 -46.75 -17.4 -4.35 -35.75 1.35 -47.7 14.75 -24.5 27.6 -50.15 27.6 -74.65 0 -11.9 -13.4 -30.25 -19.1 -47.7 -14.75 -28.9 7.2 -60.2 25.3 -80.9 46.75 -12.45 12.9 -16.7 31.65 -11.05 48.65C91.749 145.75 78.95 167.95 42.749 175.35 25.2 179 11.1 192 6.15 209.25c-8.2 28.65 -8.2 64.8 0 93.5 4.95 17.25 19.05 30.25 36.6 33.9 36.15 7.45 48.95 29.65 37.35 64.65 -5.65 17 -1.4 35.75 11.05 48.65 20.7 21.45 52.05 39.5 80.95 46.75 17.4 4.35 35.75 -1.35 47.7 -14.75 24.5 -27.6 50.15 -27.6 74.65 0 11.9 13.4 30.25 19.1 47.7 14.75 28.9 -7.2 60.25 -25.3 80.95 -46.75 12.45 -12.9 16.7 -31.65 11.05 -48.65 -11.65 -35.05 1.15 -57.25 37.35 -64.65 17.6 -3.6 31.7 -16.65 36.65 -33.9 8.15 -28.65 8.15 -64.85 -0.1 -93.5m-250.95 158.75c-61.85 0 -112 -50.15 -112 -112s50.15 -112 112 -112 112 50.15 112 112 -50.15 112 -112 112" p-id="20017" fill="#8da5f3"/></svg>