<svg t="1713667297538" class="icon" viewBox="0 0 257 256" version="1.1" xmlns="http://www.w3.org/2000/svg" p-id="20016" width="64" height="64"><path d="M254.025 104.625a24.065 24.065 0 0 0 -18.325 -16.95c-18.075 -3.725 -24.475 -14.825 -18.675 -32.325 2.825 -8.525 0.7 -17.875 -5.525 -24.325 -10.325 -10.725 -25.975 -19.775 -40.45 -23.375 -8.7 -2.175 -17.875 0.675 -23.85 7.375 -12.25 13.8 -25.075 13.8 -37.325 0a24.085 24.085 0 0 0 -23.85 -7.375c-14.45 3.6 -30.1 12.65 -40.45 23.375A24.09 24.09 0 0 0 40.05 55.35c5.824 17.525 -0.575 28.625 -18.675 32.325C12.6 89.5 5.55 96 3.075 104.625c-4.1 14.325 -4.1 32.4 0 46.75C5.55 160 12.6 166.5 21.375 168.325 39.45 172.05 45.85 183.15 40.05 200.65c-2.825 8.5 -0.7 17.875 5.525 24.325 10.35 10.725 26.025 19.75 40.475 23.375 8.7 2.175 17.875 -0.675 23.85 -7.375 12.25 -13.8 25.075 -13.8 37.325 0a24.085 24.085 0 0 0 23.85 7.375c14.45 -3.6 30.125 -12.65 40.475 -23.375a24.09 24.09 0 0 0 5.525 -24.325c-5.825 -17.525 0.575 -28.625 18.675 -32.325 8.8 -1.8 15.85 -8.325 18.325 -16.95 4.075 -14.325 4.075 -32.425 -0.05 -46.75M128.55 184c-30.925 0 -56 -25.075 -56 -56s25.075 -56 56 -56 56 25.075 56 56 -25.075 56 -56 56" p-id="20017" fill="#8da5f3"/></svg>